<svg preserveAspectRatio="none" overflow="visible" style="display: block;" width="24" height="24" viewBox="0 0 24 24" fill="none" xmlns="http://www.w3.org/2000/svg">
<g id="iconsetting" clip-path="url(#clip0_0_75)">
<path id="Vector" d="M16.5181 4.01939C15.8987 4.01939 15.589 4.01939 15.3068 3.91471C15.2677 3.90016 15.2291 3.88417 15.191 3.86674C14.9175 3.74127 14.6986 3.52228 14.2606 3.08432C13.2525 2.07628 12.7485 1.57226 12.1284 1.52578C12.045 1.51953 11.9612 1.51953 11.8779 1.52578C11.2577 1.57226 10.7536 2.07628 9.74564 3.08431C9.30768 3.52228 9.08869 3.74127 8.81517 3.86674C8.77718 3.88417 8.73856 3.90016 8.69937 3.91471C8.41724 4.01939 8.10754 4.01939 7.48817 4.01939H7.37392C5.79368 4.01939 5.00356 4.01939 4.51265 4.51031C4.02173 5.00122 4.02173 5.79134 4.02173 7.37158V7.48583C4.02173 8.1052 4.02173 8.41489 3.91705 8.69703C3.9025 8.73621 3.88651 8.77484 3.86908 8.81283C3.74361 9.08635 3.52463 9.30533 3.08665 9.7433C2.07862 10.7513 1.5746 11.2554 1.52812 11.8755C1.52188 11.9589 1.52188 12.0427 1.52812 12.126C1.5746 12.7462 2.07862 13.2502 3.08665 14.2582C3.52463 14.6963 3.74361 14.9152 3.86908 15.1887C3.88651 15.2267 3.9025 15.2653 3.91705 15.3045C4.02173 15.5866 4.02173 15.8964 4.02173 16.5157V16.63C4.02173 18.2102 4.02173 19.0004 4.51265 19.4912C5.00356 19.9822 5.79368 19.9822 7.37392 19.9822H7.48817C8.10754 19.9822 8.41724 19.9822 8.69937 20.0869C8.73856 20.1014 8.77718 20.1174 8.81517 20.1348C9.08869 20.2603 9.30768 20.4793 9.74564 20.9172C10.7536 21.9253 11.2577 22.4293 11.8779 22.4758C11.9612 22.482 12.0449 22.482 12.1284 22.4758C12.7485 22.4293 13.2525 21.9253 14.2606 20.9172C14.6986 20.4793 14.9175 20.2603 15.191 20.1348C15.2291 20.1174 15.2677 20.1014 15.3068 20.0869C15.589 19.9822 15.8987 19.9822 16.5181 19.9822H16.6323C18.2125 19.9822 19.0027 19.9822 19.4936 19.4912C19.9846 19.0004 19.9846 18.2102 19.9846 16.63V16.5157C19.9846 15.8964 19.9846 15.5866 20.0893 15.3045C20.1037 15.2653 20.1197 15.2267 20.1371 15.1887C20.2627 14.9152 20.4816 14.6963 20.9196 14.2582C21.9276 13.2502 22.4317 12.7462 22.4781 12.126C22.4844 12.0426 22.4844 11.9589 22.4781 11.8755C22.4317 11.2554 21.9276 10.7513 20.9196 9.7433C20.4816 9.30533 20.2627 9.08635 20.1371 8.81283C20.1197 8.77484 20.1037 8.73621 20.0893 8.69703C19.9846 8.41489 19.9846 8.1052 19.9846 7.48583V7.37158C19.9846 5.79134 19.9846 5.00122 19.4936 4.51031C19.0027 4.01939 18.2125 4.01939 16.6323 4.01939H16.5181Z" stroke="#141B34" stroke-width="1.5" stroke-linecap="round" stroke-linejoin="round"/>
<path id="Vector_2" d="M15.4984 11.9996C15.4984 13.9326 13.9314 15.4996 11.9984 15.4996C10.0654 15.4996 8.49844 13.9326 8.49844 11.9996C8.49844 10.0666 10.0654 8.49961 11.9984 8.49961C13.9314 8.49961 15.4984 10.0666 15.4984 11.9996Z" stroke="#240F1B" stroke-width="1.5"/>
</g>
<defs>
<clipPath id="clip0_0_75">
<rect width="24" height="24" fill="white"/>
</clipPath>
</defs>
</svg>
